<svg width="330" height="128" viewBox="0 0 330 128" fill="none" xmlns="http://www.w3.org/2000/svg">
<g clip-path="url(#clip0_1_2)">
<path d="M80.2188 80.32L96.2388 63.22H84.0588L84.8388 59.2H110.099L109.139 63.52L93.5388 80.98H106.799L106.079 85H79.3188L80.2188 80.32ZM128.207 58.54C132.967 58.54 136.427 59.38 138.587 61.06C140.867 62.82 142.007 65.74 142.007 69.82C142.007 72.34 141.587 74.62 140.747 76.66C139.907 78.66 138.727 80.32 137.207 81.64C134.167 84.2 129.767 85.48 124.007 85.48C119.087 85.48 115.567 84.54 113.447 82.66C111.167 80.7 110.027 77.76 110.027 73.84C110.027 71.24 110.547 68.88 111.587 66.76C112.667 64.64 114.207 62.88 116.207 61.48C119.127 59.52 123.127 58.54 128.207 58.54ZM124.127 81.4C125.127 81.4 125.987 80.84 126.707 79.72C127.467 78.6 128.067 77.24 128.507 75.64C128.947 74 129.267 72.32 129.467 70.6C129.707 68.84 129.827 67.32 129.827 66.04C129.827 64.92 129.707 64.08 129.467 63.52C129.267 62.92 128.807 62.62 128.087 62.62C127.007 62.62 126.067 63.2 125.267 64.36C124.507 65.52 123.887 66.9 123.407 68.5C122.927 70.1 122.567 71.74 122.327 73.42C122.127 75.1 122.027 76.46 122.027 77.5C122.027 80.1 122.727 81.4 124.127 81.4ZM166.198 59.2H178.438L172.918 85H163.198L162.118 81.16H161.758C160.718 82.4 159.298 83.44 157.498 84.28C155.738 85.08 153.958 85.48 152.158 85.48C149.758 85.48 147.878 84.88 146.518 83.68C145.158 82.44 144.478 80.84 144.478 78.88C144.478 77.88 144.638 76.64 144.958 75.16C145.318 73.64 145.638 72.22 145.918 70.9L148.438 59.2H160.618L157.618 73.24C157.538 73.56 157.458 73.94 157.378 74.38C157.298 74.82 157.218 75.26 157.138 75.7C157.058 76.1 156.978 76.5 156.898 76.9C156.858 77.26 156.838 77.56 156.838 77.8C156.838 78.4 156.958 78.92 157.198 79.36C157.478 79.76 157.958 79.96 158.638 79.96C159.358 79.96 160.038 79.72 160.678 79.24C161.318 78.76 161.818 78.3 162.178 77.86L166.198 59.2ZM194.996 63.04C195.836 62.24 196.776 61.5 197.816 60.82C198.736 60.26 199.816 59.74 201.056 59.26C202.296 58.78 203.676 58.54 205.196 58.54C207.276 58.54 208.996 59.08 210.356 60.16C211.716 61.2 212.396 62.64 212.396 64.48C212.396 65 212.336 65.64 212.216 66.4C212.096 67.12 211.956 67.88 211.796 68.68C211.636 69.48 211.456 70.3 211.256 71.14C211.096 71.94 210.956 72.66 210.836 73.3L208.316 85H196.136L199.436 69.34C199.516 68.82 199.616 68.3 199.736 67.78C199.856 67.22 199.916 66.72 199.916 66.28C199.916 65.68 199.756 65.2 199.436 64.84C199.156 64.44 198.716 64.24 198.116 64.24C197.396 64.24 196.696 64.5 196.016 65.02C195.376 65.54 194.876 65.98 194.516 66.34L190.556 85H178.316L183.776 59.2H193.556L194.636 63.04H194.996ZM239.032 44.68H251.332L242.752 85H233.032L231.952 81.16H231.532C231.292 81.52 230.912 81.96 230.392 82.48C229.912 82.96 229.292 83.44 228.532 83.92C227.772 84.36 226.872 84.72 225.832 85C224.792 85.32 223.592 85.48 222.232 85.48C220.832 85.48 219.632 85.28 218.632 84.88C217.672 84.44 216.872 83.86 216.232 83.14C215.632 82.42 215.192 81.56 214.912 80.56C214.632 79.52 214.492 78.4 214.492 77.2C214.492 76.68 214.532 75.86 214.612 74.74C214.692 73.58 214.872 72.32 215.152 70.96C215.472 69.56 215.912 68.14 216.472 66.7C217.072 65.22 217.852 63.88 218.812 62.68C219.812 61.48 221.032 60.5 222.472 59.74C223.912 58.94 225.652 58.54 227.692 58.54C228.332 58.54 229.012 58.6 229.732 58.72C230.452 58.84 231.132 59.06 231.772 59.38C232.452 59.7 233.052 60.16 233.572 60.76C234.092 61.36 234.472 62.14 234.712 63.1H235.132L239.032 44.68ZM231.712 64.42C230.752 64.42 229.952 64.96 229.312 66.04C228.672 67.08 228.152 68.3 227.752 69.7C227.352 71.1 227.052 72.5 226.852 73.9C226.692 75.3 226.612 76.34 226.612 77.02C226.612 77.82 226.732 78.5 226.972 79.06C227.212 79.58 227.672 79.84 228.352 79.84C228.752 79.84 229.132 79.76 229.492 79.6C229.892 79.4 230.252 79.18 230.572 78.94C230.932 78.66 231.232 78.38 231.472 78.1C231.712 77.82 231.912 77.58 232.072 77.38L234.412 66.46C234.132 66.02 233.752 65.58 233.272 65.14C232.832 64.66 232.312 64.42 231.712 64.42Z" fill="black"/>
<g filter="url(#filter0_d_1_2)">
<mask id="path-2-inside-1_1_2" fill="white">
<path d="M250.294 64.6427C250.596 65.687 251.683 66.3084 252.7 65.9258C255.775 64.7701 258.499 62.8598 260.604 60.364C263.125 57.3749 264.636 53.6901 264.935 49.8077C265.233 45.9253 264.303 42.0325 262.27 38.6555C260.238 35.2786 257.201 32.5802 253.571 30.9253C249.94 29.2703 245.891 28.7385 241.97 29.4018C238.049 30.0651 234.446 31.8914 231.648 34.634C228.849 37.3766 226.99 40.9031 226.322 44.7369C225.765 47.9339 226.058 51.216 227.159 54.2731C227.526 55.2938 228.701 55.716 229.69 55.2711L232.238 54.1253C233.264 53.6641 233.69 52.4499 233.378 51.3696C232.869 49.6072 232.763 47.7523 233.079 45.9397C233.512 43.4554 234.717 41.1702 236.53 39.393C238.344 37.6159 240.678 36.4324 243.219 36.0026C245.76 35.5728 248.384 35.9174 250.736 36.9898C253.089 38.0622 255.057 39.8107 256.373 41.999C257.69 44.1872 258.293 46.7097 258.1 49.2255C257.907 51.7413 256.927 54.129 255.293 56.0659C254.096 57.4858 252.589 58.6133 250.891 59.3741C249.867 59.8329 249.222 60.9425 249.534 62.0202L250.294 64.6427Z"/>
</mask>
<path d="M250.294 64.6427C250.596 65.687 251.683 66.3084 252.7 65.9258C255.775 64.7701 258.499 62.8598 260.604 60.364C263.125 57.3749 264.636 53.6901 264.935 49.8077C265.233 45.9253 264.303 42.0325 262.27 38.6555C260.238 35.2786 257.201 32.5802 253.571 30.9253C249.94 29.2703 245.891 28.7385 241.97 29.4018C238.049 30.0651 234.446 31.8914 231.648 34.634C228.849 37.3766 226.99 40.9031 226.322 44.7369C225.765 47.9339 226.058 51.216 227.159 54.2731C227.526 55.2938 228.701 55.716 229.69 55.2711L232.238 54.1253C233.264 53.6641 233.69 52.4499 233.378 51.3696C232.869 49.6072 232.763 47.7523 233.079 45.9397C233.512 43.4554 234.717 41.1702 236.53 39.393C238.344 37.6159 240.678 36.4324 243.219 36.0026C245.76 35.5728 248.384 35.9174 250.736 36.9898C253.089 38.0622 255.057 39.8107 256.373 41.999C257.69 44.1872 258.293 46.7097 258.1 49.2255C257.907 51.7413 256.927 54.129 255.293 56.0659C254.096 57.4858 252.589 58.6133 250.891 59.3741C249.867 59.8329 249.222 60.9425 249.534 62.0202L250.294 64.6427Z" fill="black"/>
<path d="M250.294 64.6427C250.596 65.687 251.683 66.3084 252.7 65.9258C255.775 64.7701 258.499 62.8598 260.604 60.364C263.125 57.3749 264.636 53.6901 264.935 49.8077C265.233 45.9253 264.303 42.0325 262.27 38.6555C260.238 35.2786 257.201 32.5802 253.571 30.9253C249.94 29.2703 245.891 28.7385 241.97 29.4018C238.049 30.0651 234.446 31.8914 231.648 34.634C228.849 37.3766 226.99 40.9031 226.322 44.7369C225.765 47.9339 226.058 51.216 227.159 54.2731C227.526 55.2938 228.701 55.716 229.69 55.2711L232.238 54.1253C233.264 53.6641 233.69 52.4499 233.378 51.3696C232.869 49.6072 232.763 47.7523 233.079 45.9397C233.512 43.4554 234.717 41.1702 236.53 39.393C238.344 37.6159 240.678 36.4324 243.219 36.0026C245.76 35.5728 248.384 35.9174 250.736 36.9898C253.089 38.0622 255.057 39.8107 256.373 41.999C257.69 44.1872 258.293 46.7097 258.1 49.2255C257.907 51.7413 256.927 54.129 255.293 56.0659C254.096 57.4858 252.589 58.6133 250.891 59.3741C249.867 59.8329 249.222 60.9425 249.534 62.0202L250.294 64.6427Z" stroke="black" stroke-width="2" mask="url(#path-2-inside-1_1_2)"/>
</g>
<g filter="url(#filter1_d_1_2)">
<mask id="path-3-inside-2_1_2" fill="white">
<path d="M248.916 76.1419C249.056 77.2376 250.059 78.0191 251.143 77.8064C256.544 76.7469 261.563 74.2186 265.64 70.4821C270.208 66.294 273.368 60.7937 274.684 54.7371C276 48.6805 275.407 42.365 272.988 36.6587C270.569 30.9524 266.442 26.1354 261.174 22.8697C255.907 19.6041 249.757 18.0502 243.57 18.4215C237.383 18.7929 231.463 21.0713 226.624 24.9437C221.785 28.816 218.264 34.0921 216.545 40.0468C215.011 45.3594 214.979 50.9795 216.432 56.2881C216.724 57.3535 217.87 57.9048 218.914 57.5428L221.427 56.6712C222.47 56.3092 223.014 55.1711 222.743 54.1004C221.728 50.0975 221.791 45.8843 222.943 41.894C224.281 37.2613 227.02 33.1564 230.785 30.1438C234.55 27.1311 239.156 25.3585 243.969 25.0696C248.782 24.7806 253.567 25.9896 257.665 28.5303C261.764 31.0709 264.975 34.8186 266.857 39.2581C268.738 43.6976 269.199 48.6111 268.175 53.3231C267.152 58.0351 264.694 62.3144 261.139 65.5727C258.078 68.3791 254.332 70.3095 250.296 71.1814C249.216 71.4146 248.439 72.4077 248.579 73.5034L248.916 76.1419Z"/>
</mask>
<path d="M248.916 76.1419C249.056 77.2376 250.059 78.0191 251.143 77.8064C256.544 76.7469 261.563 74.2186 265.64 70.4821C270.208 66.294 273.368 60.7937 274.684 54.7371C276 48.6805 275.407 42.365 272.988 36.6587C270.569 30.9524 266.442 26.1354 261.174 22.8697C255.907 19.6041 249.757 18.0502 243.57 18.4215C237.383 18.7929 231.463 21.0713 226.624 24.9437C221.785 28.816 218.264 34.0921 216.545 40.0468C215.011 45.3594 214.979 50.9795 216.432 56.2881C216.724 57.3535 217.87 57.9048 218.914 57.5428L221.427 56.6712C222.47 56.3092 223.014 55.1711 222.743 54.1004C221.728 50.0975 221.791 45.8843 222.943 41.894C224.281 37.2613 227.02 33.1564 230.785 30.1438C234.55 27.1311 239.156 25.3585 243.969 25.0696C248.782 24.7806 253.567 25.9896 257.665 28.5303C261.764 31.0709 264.975 34.8186 266.857 39.2581C268.738 43.6976 269.199 48.6111 268.175 53.3231C267.152 58.0351 264.694 62.3144 261.139 65.5727C258.078 68.3791 254.332 70.3095 250.296 71.1814C249.216 71.4146 248.439 72.4077 248.579 73.5034L248.916 76.1419Z" fill="black"/>
<path d="M248.916 76.1419C249.056 77.2376 250.059 78.0191 251.143 77.8064C256.544 76.7469 261.563 74.2186 265.64 70.4821C270.208 66.294 273.368 60.7937 274.684 54.7371C276 48.6805 275.407 42.365 272.988 36.6587C270.569 30.9524 266.442 26.1354 261.174 22.8697C255.907 19.6041 249.757 18.0502 243.57 18.4215C237.383 18.7929 231.463 21.0713 226.624 24.9437C221.785 28.816 218.264 34.0921 216.545 40.0468C215.011 45.3594 214.979 50.9795 216.432 56.2881C216.724 57.3535 217.87 57.9048 218.914 57.5428L221.427 56.6712C222.47 56.3092 223.014 55.1711 222.743 54.1004C221.728 50.0975 221.791 45.8843 222.943 41.894C224.281 37.2613 227.02 33.1564 230.785 30.1438C234.55 27.1311 239.156 25.3585 243.969 25.0696C248.782 24.7806 253.567 25.9896 257.665 28.5303C261.764 31.0709 264.975 34.8186 266.857 39.2581C268.738 43.6976 269.199 48.6111 268.175 53.3231C267.152 58.0351 264.694 62.3144 261.139 65.5727C258.078 68.3791 254.332 70.3095 250.296 71.1814C249.216 71.4146 248.439 72.4077 248.579 73.5034L248.916 76.1419Z" stroke="black" stroke-width="2" mask="url(#path-3-inside-2_1_2)"/>
</g>
</g>
<defs>
<filter id="filter0_d_1_2" x="222.047" y="29.1242" width="46.9422" height="44.9154" filterUnits="userSpaceOnUse" color-interpolation-filters="sRGB">
<feFlood flood-opacity="0" result="BackgroundImageFix"/>
<feColorMatrix in="SourceAlpha" type="matrix" values="0 0 0 0 0 0 0 0 0 0 0 0 0 0 0 0 0 0 127 0" result="hardAlpha"/>
<feOffset dy="4"/>
<feGaussianBlur stdDeviation="2"/>
<feComposite in2="hardAlpha" operator="out"/>
<feColorMatrix type="matrix" values="0 0 0 0 1 0 0 0 0 1 0 0 0 0 1 0 0 0 0.25 0"/>
<feBlend mode="normal" in2="BackgroundImageFix" result="effect1_dropShadow_1_2"/>
<feBlend mode="normal" in="SourceGraphic" in2="effect1_dropShadow_1_2" result="shape"/>
</filter>
<filter id="filter1_d_1_2" x="211.368" y="18.3676" width="68" height="67.4738" filterUnits="userSpaceOnUse" color-interpolation-filters="sRGB">
<feFlood flood-opacity="0" result="BackgroundImageFix"/>
<feColorMatrix in="SourceAlpha" type="matrix" values="0 0 0 0 0 0 0 0 0 0 0 0 0 0 0 0 0 0 127 0" result="hardAlpha"/>
<feOffset dy="4"/>
<feGaussianBlur stdDeviation="2"/>
<feComposite in2="hardAlpha" operator="out"/>
<feColorMatrix type="matrix" values="0 0 0 0 1 0 0 0 0 1 0 0 0 0 1 0 0 0 0.25 0"/>
<feBlend mode="normal" in2="BackgroundImageFix" result="effect1_dropShadow_1_2"/>
<feBlend mode="normal" in="SourceGraphic" in2="effect1_dropShadow_1_2" result="shape"/>
</filter>
<clipPath id="clip0_1_2">
<rect width="330" height="128" fill="white"/>
</clipPath>
</defs>
</svg>
